<svg xmlns="http://www.w3.org/2000/svg" viewBox="0 0 700 720">
<defs><clipPath id="blob"><path d="M573 108c82 82 81 233 30 349-52 117-155 198-259 187-104-12-209-117-239-238-31-122 13-260 116-326 103-67 270-54 352 28Z"/></clipPath><linearGradient id="bg" x1="0" y1="0" x2="1" y2="1"><stop stop-color="#f03d86"/><stop offset="1" stop-color="#19c37d"/></linearGradient></defs><path d="M573 108c82 82 81 233 30 349-52 117-155 198-259 187-104-12-209-117-239-238-31-122 13-260 116-326 103-67 270-54 352 28Z" fill="#ccd6df"/><g clip-path="url(#blob)"><rect width="700" height="720" fill="url(#bg)"/><circle cx="350" cy="260" r="105" fill="#f4d2bd"/><path d="M235 270c20-130 235-135 245 5 5 70-22 130-65 165H300c-47-38-75-93-65-170Z" fill="#263043"/><path d="M165 720c20-165 110-250 190-250s170 85 190 250Z" fill="#0d1729"/><text x="350" y="615" text-anchor="middle" font-size="42" font-family="Inter,Arial" font-weight="800" fill="#fff">Tu foto aquí</text></g></svg>
